# xmcd
#
# Track frame offsets: 
#        150
#        10714
#        21584
#        34235
#        46890
#        57915
#        71713
#        83367
#        96078
#        106193
#        118381
#        131307
#        144737
#        154523
#        167806
#        179455
#        194150
#        206849
#        216423
#        230647
#        243997
#        254818
#        266906
#        280997
#        291241
#
# Disc length: 4044 seconds
#
# Revision: 0
# Processed by: cddbd v1.5.2PL0 Copyright (c) Steve Scherf et al.
# Submitted via: ExactAudioCopy v0.95b3
#
DISCID=870fca19
DTITLE=Dean Martin  - The Best Of Dean Martin Disc 2
DYEAR=1900
DGENRE=
TTITLE0=01 - Mambo Italiano
TTITLE1=02 - Kiss
TTITLE2=03 - How D'ya Like Your Eggs in the Morning
TTITLE3=04 - If
TTITLE4=05 - Ev'ry Street's a Boulevard in Old New York
TTITLE5=06 - That Lucky Old Sun
TTITLE6=07 - Dreamy Old New England Moon
TTITLE7=08 - Just for Fun
TTITLE8=09 - Once in Love with Amy
TTITLE9=10 - Rain
TTITLE10=11 - All I have to Give You
TTITLE11=12 - Meanderin'
TTITLE12=13 - You and Your Beautiful Eyes
TTITLE13=14 - Relax-Ay-Voo
TTITLE14=15 - Baby, Obey Me
TTITLE15=16 - Come Back to Sorrento
TTITLE16=17 - Ma Come Bali
TTITLE17=18 - Luna Mezzo Mare
TTITLE18=19 - My Heart has Found a new Home Now
TTITLE19=20 - I Passed Your House Tonight
TTITLE20=21 - Have a Little Sympathy
TTITLE21=22 - Bet-I-Cha
TTITLE22=23 - As You Are
TTITLE23=24 - Zing-A-Zing-A-Zing Boom
TTITLE24=25 - Bonne Nuit (Good Night)
EXTD=
EXTT0=
EXTT1=
EXTT2=
EXTT3=
EXTT4=
EXTT5=
EXTT6=
EXTT7=
EXTT8=
EXTT9=
EXTT10=
EXTT11=
EXTT12=
EXTT13=
EXTT14=
EXTT15=
EXTT16=
EXTT17=
EXTT18=
EXTT19=
EXTT20=
EXTT21=
EXTT22=
EXTT23=
EXTT24=
PLAYORDER=
